<?xml version="1.0" encoding="UTF-8" standalone="no"?>
<svg
   id="svg"
   width="400"
   height="400"
   viewBox="0, 0, 400,400"
   version="1.1"
   sodipodi:docname="animal-track.svg"
   inkscape:version="1.1.1 (3bf5ae0d25, 2021-09-20)"
   xmlns:inkscape="http://www.inkscape.org/namespaces/inkscape"
   xmlns:sodipodi="http://sodipodi.sourceforge.net/DTD/sodipodi-0.dtd"
   xmlns="http://www.w3.org/2000/svg"
   xmlns:svg="http://www.w3.org/2000/svg">
  <defs
     id="defs67" />
  <sodipodi:namedview
     id="namedview65"
     pagecolor="#ffffff"
     bordercolor="#666666"
     borderopacity="1.0"
     inkscape:pageshadow="2"
     inkscape:pageopacity="0.0"
     inkscape:pagecheckerboard="true"
     showgrid="false"
     inkscape:zoom="1.5746606"
     inkscape:cx="242.27443"
     inkscape:cy="211.15662"
     inkscape:window-width="3440"
     inkscape:window-height="1415"
     inkscape:window-x="0"
     inkscape:window-y="25"
     inkscape:window-maximized="1"
     inkscape:current-layer="group0" />
  <g
     id="group0"
     transform="matrix(1.0008981,0,0,1.0035771,0.55944858,-1.4034879)">
    <path
       id="path0"
       style="stroke-width:1.00017"
       d="M 83.070312 0.013671875 C 81.720505 -0.18078021 80.56323 1.7924027 77.484375 5.6308594 C 54.473353 34.319116 49.546403 48.086011 57.160156 62.412109 C 71.082414 88.611179 110.13986 80.332751 111.63086 50.867188 C 112.22106 39.193551 107.2439 29.274986 89.818359 7.4082031 C 85.964048 2.5715674 84.42012 0.20812396 83.070312 0.013671875 z M 154.84766 0.013671875 C 153.49785 -0.18078021 152.34252 1.7924027 149.26367 5.6308594 C 126.25264 34.319116 121.32375 48.086011 128.9375 62.412109 C 142.85975 88.611179 181.91917 80.332751 183.41016 50.867188 C 184.00037 39.193551 179.02125 29.274986 161.5957 7.4082031 C 157.74139 2.5715674 156.19746 0.20812396 154.84766 0.013671875 z M 29.236328 49.314453 C 27.886395 49.120126 26.729246 51.095137 23.650391 54.933594 C 0.63936925 83.62185 -4.2885327 97.388745 3.3242188 111.71484 C 17.570041 138.52093 57.97544 128.86081 58.070312 98.626953 C 58.103268 88.218445 52.270495 77.148365 35.982422 56.708984 C 32.12861 51.872849 30.586261 49.50878 29.236328 49.314453 z M 208.68164 49.314453 C 207.33183 49.120126 206.17651 51.095137 203.09766 54.933594 C 180.08664 83.62185 175.15773 97.388745 182.77148 111.71484 C 196.69375 137.91291 235.7512 129.63549 237.24219 100.16992 C 237.8334 88.495282 232.85523 78.576768 215.42969 56.708984 C 211.57538 51.872849 210.03145 49.50878 208.68164 49.314453 z M 120.17969 84.273438 C 115.74502 84.130885 111.25338 84.619982 106.83789 85.810547 C 92.058789 89.79625 79.669147 101.48262 74.671875 116.1543 C 73.003121 121.05454 72.458247 121.79004 68.474609 124.51562 C 23.623989 155.20124 59.43975 224.6305 111.69141 208.29102 L 119.33203 205.90039 L 125.3418 207.86914 C 145.71736 214.54136 164.13747 210.042 177.83203 195.05078 C 196.78851 174.30087 192.99254 140.18212 169.97852 124.4707 C 166.03683 121.78017 165.53323 121.08536 163.81055 115.96875 C 157.54486 97.364518 139.39659 84.891164 120.17969 84.273438 z M 245.78125 188.66016 C 244.43144 188.4657 243.27417 190.43889 240.19531 194.27734 C 217.18428 222.9656 212.25734 236.73249 219.87109 251.05859 C 233.79336 277.25766 272.85081 268.97924 274.3418 239.51367 C 274.93201 227.84003 269.95484 217.92147 252.5293 196.05469 C 248.67499 191.21805 247.13106 188.85461 245.78125 188.66016 z M 317.55859 188.66016 C 316.20879 188.4657 315.05347 190.43889 311.97461 194.27734 C 288.96359 222.9656 284.0347 236.73249 291.64844 251.05859 C 305.5707 277.25766 344.63011 268.97924 346.12109 239.51367 C 346.7113 227.84003 341.73219 217.92147 324.30664 196.05469 C 320.45233 191.21805 318.9084 188.85461 317.55859 188.66016 z M 191.94727 237.96094 C 190.59733 237.76661 189.44018 239.74162 186.36133 243.58008 C 163.3503 272.26834 158.42241 286.03327 166.03516 300.35938 C 180.28098 327.16546 220.68638 317.50729 220.78125 287.27344 C 220.81418 276.86493 214.98143 265.79485 198.69336 245.35547 C 194.83955 240.51934 193.2972 238.15527 191.94727 237.96094 z M 371.39258 237.96094 C 370.04277 237.76661 368.88745 239.74162 365.80859 243.58008 C 342.79757 272.26834 337.86867 286.03327 345.48242 300.35938 C 359.40467 326.55744 398.46213 318.28197 399.95312 288.81641 C 400.54433 277.14176 395.56616 267.22325 378.14062 245.35547 C 374.28631 240.51934 372.74239 238.15527 371.39258 237.96094 z M 282.39258 273.39844 C 277.95791 273.25589 273.46628 273.74303 269.05078 274.93359 C 254.27168 278.91929 241.88399 290.60762 236.88672 305.2793 C 235.21797 310.17954 234.67309 310.91309 230.68945 313.63867 C 185.83883 344.3243 221.65459 413.7555 273.90625 397.41602 L 281.54688 395.02539 L 287.55469 396.99219 C 307.93025 403.66441 326.35232 399.167 340.04688 384.17578 C 359.00335 363.42588 355.20543 329.30518 332.19141 313.59375 C 328.24972 310.90322 327.74808 310.21036 326.02539 305.09375 C 319.7597 286.48952 301.60948 274.01616 282.39258 273.39844 z "
       transform="matrix(0.99910271,0,0,0.99643565,-0.55894659,1.3984854)" />
  </g>
</svg>
